<svg xmlns="http://www.w3.org/2000/svg" viewBox="0 0 636.32 639.38"><defs><style>.cls-1{fill:#fff;fill-rule:evenodd;}</style></defs><g id="Capa_2" data-name="Capa 2"><g id="Capa_1-2" data-name="Capa 1"><path class="cls-1" d="M543.61,92.92A314.79,314.79,0,0,0,319.49,0C144.85,0,2.73,142.12,2.66,316.8A316.28,316.28,0,0,0,45,475.2L0,639.38l168-44.06a316.59,316.59,0,0,0,151.4,38.56h.13c174.62,0,316.76-142.13,316.83-316.82A314.9,314.9,0,0,0,543.61,92.92ZM319.49,580.38h-.11a263,263,0,0,1-134-36.71L175.74,538,76.07,564.11l26.61-97.18-6.27-10A262.74,262.74,0,0,1,56.15,316.82C56.21,171.63,174.34,53.51,319.59,53.51A263.37,263.37,0,0,1,582.83,317c-.07,145.2-118.19,263.34-263.34,263.34ZM463.93,383.15c-7.91-4-46.83-23.11-54.09-25.76s-12.54-4-17.81,4-20.45,25.75-25.07,31-9.23,5.94-17.15,2-33.42-12.33-63.66-39.3c-23.53-21-39.42-46.91-44-54.83s0-11.8,3.47-16.16c8.57-10.64,17.15-21.8,19.79-27.08s1.32-9.91-.66-13.87-17.81-42.92-24.41-58.78c-6.42-15.43-12.94-13.35-17.81-13.59-4.61-.23-9.89-.28-15.17-.28s-13.86,2-21.11,9.91-27.71,27.08-27.71,66,28.37,76.61,32.33,81.9,55.82,85.24,135.23,119.53a451.68,451.68,0,0,0,45.13,16.67c19,6,36.22,5.18,49.86,3.14,15.21-2.27,46.84-19.15,53.44-37.64s6.6-34.34,4.62-37.64-7.26-5.29-15.18-9.25Z"/></g></g></svg>