<svg xmlns="http://www.w3.org/2000/svg" xmlns:xlink="http://www.w3.org/1999/xlink" viewBox="0 0 510.9 511"><defs><style>.cls-1{fill:none;}.cls-2{clip-path:url(#clip-path);}.cls-3{fill:#fff;}</style><clipPath id="clip-path" transform="translate(-0.9)"><rect class="cls-1" width="511" height="511"/></clipPath></defs><g id="Capa_2" data-name="Capa 2"><g id="Capa_1-2" data-name="Capa 1"><g class="cls-2"><path class="cls-3" d="M510.5,150.23c-1.2-27.14-5.59-45.81-11.88-62a130.93,130.93,0,0,0-74.77-74.76C407.58,7.19,389,2.8,361.86,1.6,334.51.3,325.82,0,256.45,0S178.39.3,151.13,1.5s-45.81,5.59-62,11.88A124.58,124.58,0,0,0,43.82,42.93,125.71,125.71,0,0,0,14.38,88.14C8.09,104.42,3.7,123,2.5,150.13,1.2,177.49.9,186.17.9,255.55s.3,78.06,1.49,105.31,5.6,45.82,11.89,62a126,126,0,0,0,29.54,45.32A125.91,125.91,0,0,0,89,497.63c16.28,6.28,34.84,10.68,62,11.87S187,511,256.35,511s78.06-.3,105.31-1.5,45.82-5.59,62-11.87a130.69,130.69,0,0,0,74.77-74.77c6.29-16.27,10.68-34.84,11.88-62s1.5-35.93,1.5-105.31-.1-78.06-1.3-105.32Zm-46,208.64c-1.1,24.95-5.29,38.43-8.78,47.42a84.73,84.73,0,0,1-48.52,48.51c-9,3.49-22.56,7.68-47.41,8.78-27,1.2-35,1.5-103.22,1.5s-76.37-.3-103.22-1.5c-25-1.1-38.44-5.29-47.42-8.78a78.44,78.44,0,0,1-29.34-19.07A79.32,79.32,0,0,1,57.5,406.39c-3.5-9-7.69-22.57-8.79-47.42-1.19-27-1.49-35-1.49-103.22s.3-76.37,1.49-103.22c1.1-25,5.29-38.43,8.79-47.41A77.52,77.52,0,0,1,76.67,75.77,79.24,79.24,0,0,1,106,56.7c9-3.49,22.56-7.68,47.42-8.79,26.95-1.19,35-1.49,103.21-1.49s76.37.3,103.23,1.49c24.95,1.11,38.43,5.3,47.41,8.79a78.48,78.48,0,0,1,29.35,19.07,79.28,79.28,0,0,1,19.07,29.35c3.49,9,7.68,22.55,8.78,47.41,1.2,26.95,1.5,35,1.5,103.22s-.3,76.16-1.5,103.12Z" transform="translate(-0.9)"/></g><path class="cls-3" d="M256.45,124.28A131.27,131.27,0,1,0,387.71,255.55,131.3,131.3,0,0,0,256.45,124.28Zm0,216.42a85.15,85.15,0,1,1,85.15-85.15,85.16,85.16,0,0,1-85.15,85.15Z" transform="translate(-0.9)"/><path class="cls-3" d="M423.55,119.09a30.65,30.65,0,1,1-30.64-30.64,30.64,30.64,0,0,1,30.64,30.64Z" transform="translate(-0.9)"/></g></g></svg>